<svg viewBox="0 0 52 52" fill="none" xmlns="http://www.w3.org/2000/svg">
<g clip-path="url(#clip0)">
<path d="M47.836 12.139L27.554 0.426803C27.089 0.150604 26.5589 0.00314785 26.0181 -0.000421891C25.4772 -0.00399163 24.9452 0.136454 24.4766 0.406491L4.16414 12.14C3.58831 12.4776 3.13926 12.9949 2.88601 13.6125C2.63277 14.2301 2.58933 14.9137 2.76238 15.5584C2.93543 16.2031 3.31539 16.7731 3.84387 17.1808C4.37234 17.5886 5.0201 17.8115 5.68758 17.8153V45.9766C4.99608 46.2169 4.41204 46.6943 4.03903 47.3242C3.66601 47.9541 3.52813 48.6957 3.64984 49.4176C3.77155 50.1395 4.14499 50.7949 4.70392 51.2677C5.26284 51.7404 5.97114 52 6.7032 52.0002H45.2969C46.029 52 46.7373 51.7404 47.2962 51.2677C47.8552 50.7949 48.2286 50.1395 48.3503 49.4176C48.472 48.6957 48.3341 47.9541 47.9611 47.3242C47.5881 46.6943 47.0041 46.2169 46.3126 45.9766V17.8163C46.9807 17.8132 47.6293 17.5906 48.1585 17.1828C48.6877 16.7749 49.0681 16.2044 49.2413 15.5591C49.4144 14.9138 49.3707 14.2295 49.1168 13.6115C48.8628 12.9935 48.4128 12.4761 47.836 12.139V12.139ZM44.2813 34.7204H38.1876V28.6266H44.2813V34.7204ZM44.2813 26.5954H37.1719C36.9026 26.5954 36.6443 26.7024 36.4538 26.8929C36.2633 27.0833 36.1563 27.3417 36.1563 27.611V35.736C36.1563 36.0054 36.2633 36.2637 36.4538 36.4542C36.6443 36.6446 36.9026 36.7516 37.1719 36.7516H44.2813V45.8049H7.71883V36.7516H14.8282C15.0976 36.7516 15.3559 36.6446 15.5464 36.4542C15.7368 36.2637 15.8438 36.0054 15.8438 35.736V27.611C15.8438 27.3417 15.7368 27.0833 15.5464 26.8929C15.3559 26.7024 15.0976 26.5954 14.8282 26.5954H7.71883V17.1125L26.0001 6.5561L44.2813 17.1125V26.5954ZM7.71883 28.6266H13.8126V34.7204H7.71883V28.6266ZM45.2969 49.969H6.7032C6.42037 49.969 6.14913 49.8566 5.94914 49.6566C5.74915 49.4567 5.63679 49.1854 5.63679 48.9026C5.63679 48.6198 5.74915 48.3485 5.94914 48.1485C6.14913 47.9485 6.42037 47.8362 6.7032 47.8362H45.2969C45.5798 47.8362 45.851 47.9485 46.051 48.1485C46.251 48.3485 46.3634 48.6198 46.3634 48.9026C46.3634 49.1854 46.251 49.4567 46.051 49.6566C45.851 49.8566 45.5798 49.969 45.2969 49.969V49.969ZM47.188 15.2793C47.0527 15.5108 46.8313 15.6793 46.5722 15.7482C46.313 15.8171 46.0372 15.7807 45.8048 15.647L26.5079 4.50352C26.3535 4.41438 26.1784 4.36745 26.0001 4.36745C25.8218 4.36745 25.6467 4.41438 25.4923 4.50352L6.19539 15.647C5.96295 15.7803 5.68724 15.8163 5.42833 15.7473C5.16942 15.6782 4.94829 15.5097 4.81312 15.2783C4.68027 15.0463 4.64425 14.7712 4.71289 14.5128C4.78153 14.2545 4.94928 14.0335 5.17976 13.8981L25.4923 2.16758C25.6485 2.07762 25.8258 2.03087 26.0061 2.03212C26.1864 2.03337 26.3631 2.08258 26.518 2.17469L26.5302 2.1818L46.8204 13.8981C47.052 14.0327 47.221 14.2534 47.2906 14.5121C47.3603 14.7708 47.3249 15.0466 47.1921 15.2793H47.188Z" fill="#000"/>
<path d="M21.7395 18.0194V19.6444C21.7393 20.065 21.8016 20.4832 21.9243 20.8855C21.3073 21.2846 20.7996 21.8313 20.4472 22.4761C20.0948 23.121 19.9089 23.8435 19.9062 24.5783V28.8104C19.9089 30.3776 20.5153 31.8834 21.5993 33.0151V40.6597C21.5996 41.1535 21.7958 41.6269 22.1448 41.9762C22.4938 42.3254 22.9672 42.5218 23.4609 42.5224H24.7305C25.1681 42.5221 25.6007 42.4294 26 42.2502C26.3995 42.4283 26.8321 42.52 27.2695 42.5193H28.5391C29.0326 42.5188 29.5058 42.3225 29.8548 41.9735C30.2039 41.6245 30.4002 41.1513 30.4007 40.6577V33.0171C31.485 31.8852 32.0913 30.3789 32.0938 28.8114V24.5783C32.0916 23.843 31.9059 23.1198 31.5535 22.4744C31.2011 21.829 30.6931 21.2818 30.0757 20.8825C30.2 20.4808 30.2641 20.0629 30.2656 19.6424V18.0174C30.2656 16.8874 29.8167 15.8037 29.0177 15.0047C28.2187 14.2057 27.135 13.7568 26.0051 13.7568C24.8751 13.7568 23.7914 14.2057 22.9924 15.0047C22.1934 15.8037 21.7445 16.8874 21.7445 18.0174L21.7395 18.0194ZM30.0625 24.5783V28.8104C30.0608 29.3808 29.9392 29.9444 29.7056 30.4648C29.472 30.9851 29.1317 31.4506 28.7066 31.8309C28.6006 31.9261 28.5157 32.0426 28.4576 32.1728C28.3995 32.303 28.3695 32.444 28.3695 32.5865V40.4901H27.2695C27.0313 40.4909 26.7994 40.4134 26.6094 40.2697C26.4336 40.1379 26.2198 40.0666 26 40.0666C25.7802 40.0666 25.5664 40.1379 25.3906 40.2697C25.2013 40.4134 24.9702 40.4911 24.7325 40.4911H23.6305V32.5875C23.6305 32.445 23.6005 32.304 23.5424 32.1738C23.4843 32.0436 23.3994 31.9271 23.2934 31.8319C22.868 31.4519 22.5274 30.9865 22.2938 30.4661C22.0602 29.9457 21.9388 29.3819 21.9375 28.8114V24.5783C21.9389 24.1944 22.0333 23.8166 22.2127 23.4771C22.392 23.1377 22.651 22.8468 22.9673 22.6293C23.3629 23.0324 23.8348 23.3525 24.3555 23.571C24.8763 23.7895 25.4353 23.9021 26 23.9021C26.5647 23.9021 27.1237 23.7895 27.6445 23.571C28.1652 23.3525 28.6371 23.0324 29.0327 22.6293C29.349 22.8468 29.608 23.1377 29.7873 23.4771C29.9667 23.8166 30.0611 24.1944 30.0625 24.5783V24.5783ZM28.2344 18.0194V19.6444C28.2344 20.2357 27.9995 20.8027 27.5814 21.2208C27.1634 21.6388 26.5963 21.8737 26.0051 21.8737C25.4138 21.8737 24.8468 21.6388 24.4287 21.2208C24.0107 20.8027 23.7758 20.2357 23.7758 19.6444V18.0194C23.7771 17.4295 24.0117 16.864 24.4284 16.4463C24.8451 16.0287 25.41 15.7928 26 15.7901V15.7901C26.5917 15.7901 27.1593 16.0248 27.5781 16.4428C27.997 16.8607 28.233 17.4277 28.2344 18.0194V18.0194Z" fill="#000"/>
</g>
<defs>
<clipPath id="clip0">
<rect width="52" height="52" fill="white"/>
</clipPath>
</defs>
</svg>
