<?xml version="1.0" ?><!DOCTYPE svg  PUBLIC '-//W3C//DTD SVG 1.1//EN'  'http://www.w3.org/Graphics/SVG/1.1/DTD/svg11.dtd'><svg enable-background="new 0 0 48 48" id="Layer_1" version="1.1" viewBox="0 0 48 48" xml:space="preserve" xmlns="http://www.w3.org/2000/svg" xmlns:xlink="http://www.w3.org/1999/xlink"><g id="Layer_3"><path d="M24,0C10.745,0,0,10.745,0,24s10.745,24,24,24s24-10.745,24-24S37.255,0,24,0z M24,44   C12.954,44,4,35.046,4,24S12.954,4,24,4s20,8.954,20,20S35.046,44,24,44z" fill="#000"/><polygon fill="#000" points="35,22 26,22 26,13.002 22,13.002 22,22 13,22 13,26 22,26 22,34.998 26,34.998 26,26 35,26  "/></g></svg>