<svg viewBox="0 0 52 52" fill="none" xmlns="http://www.w3.org/2000/svg">
<g clip-path="url(#clip0)">
<path d="M46.7705 11.8431C46.468 11.6814 46.2308 11.4199 46.0994 11.1031C45.9679 10.7863 45.9503 10.4337 46.0494 10.1054C46.3347 9.18986 46.3611 8.21328 46.1258 7.28369C45.8904 6.35411 45.4025 5.50776 44.7159 4.83832C43.3215 3.45301 41.3207 2.93606 39.4926 3.49973H39.4783C39.1478 3.60739 38.7898 3.59514 38.4674 3.46513C38.145 3.33511 37.8786 3.09565 37.7152 2.78879C37.1482 1.72925 36.2367 0.89478 35.1314 0.423178C34.0261 -0.0484246 32.793 -0.128955 31.6357 0.194884C30.9451 0.381685 30.3003 0.708415 29.7412 1.1548C29.1821 1.60118 28.7207 2.1577 28.3857 2.78981C28.2238 3.09241 27.9622 3.32961 27.6452 3.46108C27.3282 3.59254 26.9754 3.61015 26.6469 3.5109C25.7311 3.22545 24.754 3.19904 23.8241 3.43458C22.8941 3.67012 22.0475 4.15842 21.3779 4.84543C20.4045 5.81172 19.8445 7.11825 19.8159 8.48949C19.7336 8.33715 19.6432 8.18481 19.5426 8.02535C18.4966 6.39832 16.6786 5.90981 15.4375 6.14441C14.4381 6.33231 13.7333 6.97113 13.5535 7.85371C13.5017 8.1066 13.4682 8.37371 13.4337 8.65606C13.3189 9.57012 13.1625 10.8193 12.2281 12.8262C11.7806 13.797 11.4895 14.8326 11.3659 15.8944C11.0274 15.8571 10.6854 15.8687 10.3502 15.9289C9.34375 16.1168 8.64398 16.7577 8.46421 17.6382C8.41242 17.8911 8.3789 18.1582 8.34336 18.4406C8.22961 19.3547 8.0732 20.6039 7.13882 22.6107C5.81851 25.4545 6.18515 27.695 6.48172 29.4987C6.80468 31.4843 7.02406 32.7924 5.3432 34.5464L2.74219 37.1464C2.55179 37.3368 2.44482 37.5951 2.44482 37.8644C2.44482 38.1337 2.55179 38.392 2.74219 38.5825L15.8651 51.7023C16.0555 51.8927 16.3138 51.9997 16.5831 51.9997C16.8524 51.9997 17.1107 51.8927 17.3012 51.7023L19.8301 49.1734C20.8579 48.1578 22.1894 47.4001 23.5991 46.6018C24.3902 46.1539 25.2017 45.6878 25.9716 45.1739C26.3983 45.4847 26.8883 45.6976 27.4066 45.7975C27.925 45.8974 28.4591 45.8818 28.9707 45.7517C29.4824 45.6217 29.9591 45.3804 30.3669 45.0451C30.7746 44.7098 31.1035 44.2888 31.33 43.8119C32.0118 43.6766 32.6509 43.3787 33.1929 42.9434C33.7349 42.5081 34.1638 41.9484 34.443 41.3118C34.7222 40.6751 34.8435 39.9805 34.7966 39.287C34.7498 38.5934 34.5361 37.9214 34.1737 37.3282C36.269 35.2289 36.528 34.9506 37.243 34.1797C37.7325 33.6526 38.4729 32.8594 40.2746 30.9734C40.6263 30.6074 40.9024 30.1757 41.0871 29.7029C41.8476 29.6678 42.5924 29.4738 43.2733 29.1334C43.9543 28.793 44.5565 28.3137 45.0409 27.7264C46.1805 26.3614 46.5644 24.578 46.0565 22.9469C46.0565 22.9418 46.0565 22.9368 46.0565 22.9327C45.9489 22.6023 45.9612 22.2445 46.0913 21.9222C46.2213 21.6 46.4607 21.3338 46.7675 21.1706C47.612 20.7183 48.3173 20.0443 48.8074 19.2211C49.2976 18.3979 49.554 17.4567 49.5493 16.4987C49.5599 15.542 49.3061 14.601 48.8157 13.7795C48.3254 12.9579 47.6176 12.2878 46.7705 11.8431V11.8431ZM14.0674 13.6834C15.1369 11.3881 15.3237 9.89512 15.4466 8.90996C15.4781 8.65606 15.5055 8.4377 15.5482 8.25387C15.5695 8.22137 15.733 8.12387 16.0489 8.12082H16.0611C16.4178 8.13272 16.7664 8.23052 17.0772 8.40592C17.388 8.58132 17.652 8.82913 17.8466 9.12832C18.654 10.3796 18.4955 11.3089 18.2965 12.485C18.2904 12.5195 18.2853 12.553 18.2792 12.5865C17.7394 13.0832 17.3079 13.6861 17.0119 14.3573C16.7159 15.0285 16.5617 15.7536 16.5589 16.4872C16.5561 17.2208 16.7049 17.947 16.9958 18.6205C17.2868 19.2939 17.7137 19.9 18.2498 20.4007L15.1013 23.5492C15.1259 23.1359 15.1778 22.7247 15.2567 22.3182C15.4659 21.0995 15.7026 19.7172 14.4706 17.8089C14.1749 17.3466 13.7916 16.9467 13.3423 16.6318C13.3985 15.6127 13.6438 14.6129 14.0654 13.6834H14.0674ZM30.5581 41.8599C30.3355 41.8666 30.1213 41.9463 29.9484 42.0867C29.7756 42.227 29.6536 42.4204 29.6014 42.6368C29.5377 42.8994 29.407 43.141 29.2222 43.338C29.0373 43.535 28.8045 43.6807 28.5465 43.7609C28.2885 43.8411 28.0142 43.8531 27.7502 43.7957C27.4862 43.7383 27.2416 43.6134 27.0402 43.4332C26.8389 43.2531 26.6877 43.0239 26.6013 42.7679C26.515 42.5119 26.4965 42.2378 26.5476 41.9726C26.5987 41.7073 26.7177 41.4598 26.893 41.2542C27.0683 41.0486 27.2939 40.892 27.5478 40.7996C27.7568 40.7233 27.935 40.5806 28.055 40.3932C28.175 40.2059 28.2302 39.9844 28.212 39.7626C28.212 39.7007 28.2049 39.6377 28.2049 39.5768C28.2047 39.1277 28.3369 38.6884 28.5848 38.314C28.8328 37.9396 29.1856 37.6465 29.5992 37.4714C30.0127 37.2963 30.4687 37.247 30.9102 37.3295C31.3516 37.4121 31.759 37.6229 32.0813 37.9357C32.4036 38.2484 32.6267 38.6492 32.7225 39.0879C32.8184 39.5267 32.7829 39.9839 32.6204 40.4026C32.4579 40.8213 32.1756 41.1828 31.8088 41.442C31.442 41.7012 31.007 41.8465 30.5581 41.8599V41.8599ZM38.808 29.5708C36.9951 31.4639 36.2487 32.2673 35.7541 32.7995C35.0573 33.55 34.8055 33.8212 32.7366 35.8931C32.1086 35.5099 31.3931 35.2937 30.658 35.2649C29.9229 35.2361 29.1926 35.3957 28.5365 35.7286C27.8805 36.0615 27.3204 36.5565 26.9095 37.1667C26.4986 37.777 26.2506 38.4821 26.1889 39.2152C25.4769 39.6561 24.9413 40.332 24.675 41.1259C24.4087 41.9199 24.4283 42.782 24.7305 43.5631C24.0632 44.0049 23.3462 44.4121 22.5976 44.8357C21.1341 45.6644 19.6209 46.5216 18.397 47.7353L16.5831 49.5492L4.90343 37.8695L6.79148 35.9804L6.80468 35.9662C9.19445 33.4698 8.83593 31.2811 8.48554 29.1686C8.20828 27.4827 7.92086 25.7399 8.98015 23.4689C10.0496 21.1726 10.2365 19.6807 10.3594 18.6955C10.3909 18.4426 10.4183 18.2232 10.4609 18.0404C10.4823 18.0069 10.6458 17.9094 10.9627 17.9064C11.3213 17.9171 11.6719 18.0144 11.9848 18.19C12.2976 18.3657 12.5634 18.6143 12.7593 18.9149C13.5616 20.159 13.4377 20.8832 13.2498 21.98C13.0975 22.8697 12.9116 23.9544 13.2549 25.3946L13.0518 25.5977C12.8612 25.7883 12.7542 26.0467 12.7542 26.3162C12.7542 26.5858 12.8612 26.8442 13.0518 27.0348C13.2424 27.2254 13.5008 27.3324 13.7703 27.3324C14.0399 27.3324 14.2983 27.2254 14.4889 27.0348L28.8712 12.6434C29.198 12.3129 29.6404 12.1221 30.1051 12.1112C30.3189 12.1036 30.532 12.1398 30.7312 12.2175C30.9305 12.2953 31.1118 12.4129 31.264 12.5632C31.8865 13.1857 31.8429 14.2664 31.1675 14.9722L22.7378 23.7777C22.5509 23.9722 22.4488 24.2329 22.4542 24.5026C22.4595 24.7723 22.5718 25.0289 22.7662 25.2158C22.9607 25.4028 23.2215 25.5048 23.4912 25.4994C23.7609 25.4941 24.0174 25.3819 24.2044 25.1874L32.6259 16.3911L36.008 13.009C36.6905 12.3265 37.764 12.29 38.4008 12.9278C39.0376 13.5656 38.9898 14.634 38.3114 15.3297L36.1847 17.5093L26.4519 27.4807C26.3586 27.5762 26.2849 27.6891 26.2352 27.8131C26.1855 27.937 26.1607 28.0696 26.1622 28.2031C26.1637 28.3366 26.1915 28.4686 26.244 28.5914C26.2965 28.7142 26.3727 28.8254 26.4682 28.9188C26.5637 29.0122 26.6766 29.0858 26.8006 29.1355C26.9245 29.1852 27.0571 29.21 27.1906 29.2085C27.4603 29.2055 27.7178 29.0954 27.9063 28.9025L37.6228 18.9494C37.9499 18.6193 38.3921 18.4285 38.8568 18.4172C39.0699 18.4086 39.2825 18.4435 39.4817 18.5196C39.6809 18.5957 39.8626 18.7115 40.0156 18.86C40.6443 19.4887 40.6037 20.5663 39.9252 21.262L29.9721 31.4731C29.8787 31.5686 29.8051 31.6815 29.7554 31.8055C29.7057 31.9294 29.6809 32.062 29.6824 32.1955C29.6839 32.3291 29.7117 32.461 29.7642 32.5838C29.8167 32.7066 29.8929 32.8178 29.9883 32.9112C30.0838 33.0046 30.1968 33.0782 30.3207 33.1279C30.4447 33.1776 30.5772 33.2024 30.7108 33.2009C30.9805 33.1979 31.2379 33.0878 31.4265 32.895L36.7128 27.4715C37.3628 26.8693 38.3378 26.8327 38.9045 27.3933C39.4712 27.9539 39.4215 28.9289 38.808 29.5698V29.5708ZM45.8158 19.375C45.0888 19.7613 44.5209 20.3911 44.2115 21.1541C43.9022 21.9171 43.8711 22.7646 44.1238 23.5482C44.4234 24.5282 44.1898 25.5794 43.484 26.4214C42.9275 27.0988 42.1341 27.5393 41.2648 27.6533C41.141 27.0708 40.8668 26.5309 40.4694 26.0874C40.0721 25.6439 39.5654 25.3122 39 25.1254L41.3826 22.6798C42.833 21.1929 42.8655 18.8346 41.4548 17.4239C41.0382 17.0077 40.5248 16.7014 39.9608 16.5322C41.2212 15.0403 41.1897 12.8333 39.843 11.4866C38.413 10.0566 36.0506 10.0932 34.5769 11.5668L33.5806 12.5632C33.3436 11.8233 32.872 11.1807 32.2372 10.7326C31.6025 10.2846 30.8391 10.0555 30.0625 10.08C29.0737 10.1013 28.1319 10.5055 27.4351 11.2073L19.6828 18.9586C19.2901 18.6094 18.9872 18.1709 18.7996 17.68C18.6121 17.1892 18.5453 16.6604 18.6051 16.1384C18.6649 15.6163 18.8493 15.1163 19.143 14.6805C19.4366 14.2448 19.8308 13.886 20.2922 13.6346C21.019 13.2484 21.5869 12.6188 21.8964 11.856C22.2059 11.0933 22.2374 10.246 21.9852 9.46246C21.647 8.35746 21.968 7.1377 22.8231 6.27848C23.2347 5.85543 23.7553 5.55456 24.3273 5.40918C24.8993 5.2638 25.5004 5.27959 26.064 5.45481C26.8427 5.6903 27.679 5.64845 28.4304 5.33639C29.1817 5.02433 29.8016 4.46138 30.1844 3.74348C30.3907 3.3558 30.6744 3.01456 31.0178 2.74083C31.3612 2.4671 31.7571 2.26669 32.1811 2.15199C32.8935 1.95076 33.6533 1.99917 34.3345 2.28921C35.0156 2.57924 35.577 3.09346 35.9257 3.74652C36.312 4.47312 36.9415 5.04074 37.704 5.35006C38.4665 5.65938 39.3136 5.69071 40.0969 5.43856C41.2029 5.10035 42.4237 5.42231 43.2829 6.27746C43.7055 6.68886 44.006 7.20917 44.1512 7.7808C44.2964 8.35243 44.2806 8.95309 44.1055 9.51629C43.87 10.295 43.9119 11.1313 44.2239 11.8827C44.536 12.634 45.099 13.2539 45.8169 13.6367C46.3329 13.9172 46.7636 14.3318 47.0638 14.8366C47.364 15.3415 47.5224 15.918 47.5224 16.5053C47.5224 17.0927 47.364 17.6691 47.0638 18.174C46.7636 18.6788 46.3329 19.0934 45.8169 19.3739L45.8158 19.375Z" fill="#000"/>
<path d="M5.75971 11.5903C6.41499 11.5905 7.05562 11.3964 7.60057 11.0325C8.14552 10.6685 8.57031 10.1512 8.82122 9.54585C9.07212 8.9405 9.13787 8.27434 9.01016 7.63162C8.88244 6.9889 8.56699 6.39849 8.1037 5.93506C7.64042 5.47163 7.05011 5.156 6.40742 5.02809C5.76474 4.90018 5.09856 4.96572 4.49314 5.21644C3.88771 5.46717 3.37024 5.8918 3.00616 6.43663C2.64208 6.98147 2.44775 7.62204 2.44775 8.27733C2.44883 9.15547 2.79808 9.99736 3.41893 10.6184C4.03978 11.2394 4.88156 11.589 5.75971 11.5903V11.5903ZM5.75971 6.99561C6.01325 6.99541 6.26116 7.07041 6.47207 7.21112C6.68298 7.35184 6.84742 7.55194 6.94458 7.78613C7.04175 8.02031 7.06728 8.27806 7.01794 8.52675C6.9686 8.77545 6.84661 9.00392 6.66739 9.18328C6.48818 9.36263 6.2598 9.4848 6.01115 9.53434C5.76249 9.58388 5.50473 9.55856 5.27047 9.46158C5.0362 9.3646 4.83597 9.20031 4.69508 8.98952C4.5542 8.77872 4.479 8.53087 4.479 8.27733C4.47927 7.93765 4.61426 7.61195 4.85435 7.37167C5.09444 7.13139 5.42003 6.99614 5.75971 6.99561Z" fill="#000"/>
<path d="M20.3452 33.0283C19.6899 33.0281 19.0492 33.2223 18.5043 33.5862C17.9593 33.9502 17.5345 34.4676 17.2836 35.073C17.0328 35.6784 16.9671 36.3446 17.0949 36.9874C17.2227 37.6301 17.5382 38.2205 18.0016 38.6839C18.465 39.1473 19.0554 39.4629 19.6981 39.5907C20.3409 39.7185 21.0071 39.6528 21.6125 39.4019C22.2179 39.151 22.7353 38.7262 23.0993 38.1812C23.4632 37.6363 23.6574 36.9956 23.6572 36.3403C23.6561 35.4622 23.3068 34.6204 22.686 33.9996C22.0651 33.3787 21.2233 33.0294 20.3452 33.0283V33.0283ZM20.3452 37.622C20.0917 37.6222 19.8438 37.5472 19.6329 37.4065C19.422 37.2658 19.2575 37.0657 19.1604 36.8315C19.0632 36.5973 19.0377 36.3395 19.087 36.0908C19.1363 35.8422 19.2583 35.6137 19.4375 35.4343C19.6168 35.255 19.8451 35.1328 20.0938 35.0833C20.3425 35.0337 20.6002 35.059 20.8345 35.156C21.0687 35.253 21.269 35.4173 21.4099 35.6281C21.5507 35.8389 21.6259 36.0867 21.6259 36.3403C21.6257 36.68 21.4907 37.0057 21.2506 37.2459C21.0105 37.4862 20.6849 37.6215 20.3452 37.622V37.622Z" fill="#000"/>
</g>
<defs>
<clipPath id="clip0">
<rect width="52" height="52" fill="#000"/>
</clipPath>
</defs>
</svg>
