<svg viewBox="0 0 47 48" fill="none" xmlns="http://www.w3.org/2000/svg">
<path d="M18.4168 39C16.0335 39 14.0835 40.95 14.0835 43.3333C14.0835 45.7167 16.0335 47.6667 18.4168 47.6667C20.8002 47.6667 22.7502 45.7167 22.7502 43.3333C22.7502 40.95 20.8002 39 18.4168 39ZM18.4168 45.5C17.2252 45.5 16.2502 44.525 16.2502 43.3333C16.2502 42.1417 17.2252 41.1667 18.4168 41.1667C19.6085 41.1667 20.5835 42.1417 20.5835 43.3333C20.5835 44.525 19.6085 45.5 18.4168 45.5Z" fill="#000"/>
<path d="M37.9168 39C35.5335 39 33.5835 40.95 33.5835 43.3333C33.5835 45.7167 35.5335 47.6667 37.9168 47.6667C40.3002 47.6667 42.2502 45.7167 42.2502 43.3333C42.2502 40.95 40.3002 39 37.9168 39ZM37.9168 45.5C36.7252 45.5 35.7502 44.525 35.7502 43.3333C35.7502 42.1417 36.7252 41.1667 37.9168 41.1667C39.1085 41.1667 40.0835 42.1417 40.0835 43.3333C40.0835 44.525 39.1085 45.5 37.9168 45.5Z" fill="#000"/>
<path d="M45.0667 8.01667C44.3083 7.04167 43.0083 6.5 41.7083 6.5H11.7L11.2667 3.68333C10.9417 1.625 9.1 0 6.93333 0H0V2.16667H6.93333C8.01667 2.16667 8.99167 2.925 9.1 4.00833L13.65 33.3667C14.0833 35.425 15.925 36.9417 17.9833 36.9417H41.1667V34.775H17.9833C16.9 34.775 16.0333 34.0167 15.8167 32.9333L15.3833 30.3333H39.4333C41.4917 30.3333 43.3333 28.8167 43.7667 26.5417L46.0417 11.375C46.2583 10.1833 45.9333 8.99167 45.0667 8.01667ZM43.875 11.1583L41.6 26.325C41.3833 27.5167 40.5167 28.275 39.4333 28.275H15.0583L12.025 8.775H41.7083C42.3583 8.775 43.0083 9.1 43.4417 9.53333C43.875 9.85833 43.9833 10.5083 43.875 11.1583Z" fill="#000"/>
<path d="M27.7334 25.1336L26.7909 24.292C23.4434 21.3144 21.2334 19.3505 21.2334 16.9404C21.2334 14.9766 22.8064 13.4336 24.8084 13.4336C25.9394 13.4336 27.0249 13.9501 27.7334 14.7662C28.4419 13.9501 29.5274 13.4336 30.6584 13.4336C32.6604 13.4336 34.2334 14.9766 34.2334 16.9404C34.2334 19.3505 32.0234 21.3144 28.6759 24.2983L27.7334 25.1336Z" fill="#000"/>
</svg>
