<svg viewBox="0 0 52 52" fill="none" xmlns="http://www.w3.org/2000/svg">
<path d="M48.4453 15.8438H46.1094C39.5555 13.1483 32.7915 11.7812 26 11.7812C19.2085 11.7812 12.4485 13.1483 5.89062 15.8438H3.55469C2.61193 15.8438 1.70778 16.2183 1.04114 16.8849C0.374511 17.5515 0 18.4557 0 19.3984L0 32.6016C0 33.5443 0.374511 34.4485 1.04114 35.1151C1.70778 35.7817 2.61193 36.1562 3.55469 36.1562H5.89062C12.4445 38.8517 19.2085 40.2188 26 40.2188C32.7915 40.2188 39.5515 38.8517 46.1094 36.1562H48.4453C49.3881 36.1563 50.2922 35.7817 50.9589 35.1151C51.6255 34.4485 52 33.5443 52 32.6016V19.3984C52 18.4557 51.6255 17.5515 50.9589 16.8849C50.2922 16.2183 49.3881 15.8438 48.4453 15.8438V15.8438ZM44.8906 24.9844H7.10938V21.5424C19.5331 18.6161 32.4669 18.6161 44.8906 21.5424V24.9844ZM7.10938 27.0156H44.8906V30.4576C38.6997 31.9165 32.3605 32.653 26 32.6523C19.6395 32.653 13.3003 31.9165 7.10938 30.4576V27.0156ZM44.8906 17.5419V19.4553C32.4583 16.6034 19.5417 16.6034 7.10938 19.4553V17.5419C13.2793 15.0668 19.631 13.8125 26 13.8125C32.369 13.8125 38.7207 15.0668 44.8906 17.5419ZM2.03125 32.6016V19.3984C2.03125 18.9944 2.19175 18.6069 2.47745 18.3212C2.76315 18.0355 3.15065 17.875 3.55469 17.875H5.07812V34.125H3.55469C3.15065 34.125 2.76315 33.9645 2.47745 33.6788C2.19175 33.3931 2.03125 33.0056 2.03125 32.6016ZM7.10938 34.4581V32.5447C13.3056 33.9668 19.6427 34.6843 26 34.6836C32.3573 34.6843 38.6944 33.9668 44.8906 32.5447V34.4581C38.7207 36.9332 32.369 38.1875 26 38.1875C19.631 38.1875 13.2793 36.9332 7.10938 34.4581ZM49.9688 32.6016C49.9687 33.0056 49.8082 33.3931 49.5225 33.6788C49.2368 33.9645 48.8494 34.125 48.4453 34.125H46.9219V17.875H48.4453C48.8494 17.875 49.2368 18.0355 49.5225 18.3212C49.8082 18.6069 49.9688 18.9944 49.9688 19.3984V32.6016Z" fill="#000"/>
</svg>
