<svg width="22" height="22" viewBox="0 0 22 22" fill="none" xmlns="http://www.w3.org/2000/svg">
<path d="M6.5 9C7.88071 9 9 7.88071 9 6.5C9 5.11929 7.88071 4 6.5 4C5.11929 4 4 5.11929 4 6.5C4 7.88071 5.11929 9 6.5 9Z" stroke="#000" stroke-width="1" stroke-linecap="round" stroke-linejoin="round"/>
<path d="M21 12H1" fill="#000" stroke-width="1" stroke-linecap="round" stroke-linejoin="round"/>
<path d="M17 8H12M17 5H12H17Z" fill="#000" stroke-width="1" stroke-linecap="round" stroke-linejoin="round"/>
<path d="M4 1H18C18.7956 1 19.5587 1.31607 20.1213 1.87868C20.6839 2.44129 21 3.20435 21 4V21H1V4C1 3.20435 1.31607 2.44129 1.87868 1.87868C2.44129 1.31607 3.20435 1 4 1V1Z" stroke="#000" stroke-width="1" stroke-linecap="round" stroke-linejoin="round"/>
</svg>
